<svg width="24" height="25" viewBox="0 0 24 25" fill="none" xmlns="http://www.w3.org/2000/svg">
<mask id="mask0_283_2723" style="mask-type:alpha" maskUnits="userSpaceOnUse" x="0" y="0" width="24" height="25">
<rect y="0.5" width="24" height="24" fill="#D9D9D9"/>
</mask>
<g mask="url(#mask0_283_2723)">
<path d="M5 11.5C4.71667 11.5 4.479 11.404 4.287 11.212C4.09567 11.0207 4 10.7833 4 10.5C4 10.2167 4.09567 9.979 4.287 9.787C4.479 9.59567 4.71667 9.5 5 9.5H19C19.2833 9.5 19.5207 9.59567 19.712 9.787C19.904 9.979 20 10.2167 20 10.5C20 10.7833 19.904 11.0207 19.712 11.212C19.5207 11.404 19.2833 11.5 19 11.5H5ZM5 15.5C4.71667 15.5 4.479 15.404 4.287 15.212C4.09567 15.0207 4 14.7833 4 14.5C4 14.2167 4.09567 13.979 4.287 13.787C4.479 13.5957 4.71667 13.5 5 13.5H19C19.2833 13.5 19.5207 13.5957 19.712 13.787C19.904 13.979 20 14.2167 20 14.5C20 14.7833 19.904 15.0207 19.712 15.212C19.5207 15.404 19.2833 15.5 19 15.5H5Z" fill="#282D34"/>
</g>
</svg>
