<svg width="79" height="52" viewBox="0 0 79 52" fill="none" xmlns="http://www.w3.org/2000/svg">
<path fill-rule="evenodd" clip-rule="evenodd" d="M5.81962 1.25093C4.46107 2.6117 6.55625 4.93129 8.03414 3.70268C9.22796 2.7102 8.53839 0.74585 6.99621 0.74585C6.62643 0.74585 6.09696 0.973135 5.81962 1.25093ZM30.9555 1.78926C30.3025 2.57761 30.9824 4.53396 31.9094 4.53396C33.9919 4.53396 34.6265 1.48748 32.5931 1.25051C31.9816 1.17938 31.266 1.41466 30.9555 1.78926ZM7.93959 4.95486C8.06944 5.3021 9.16451 8.10278 10.3726 11.1783C11.5807 14.2538 12.4817 16.8579 12.3745 16.9648C12.2674 17.0722 10.5882 17.3698 8.64261 17.6265C6.59239 17.8967 4.52956 18.4431 3.73578 18.9262C2.22049 19.8484 0.511491 22.514 0.0669058 24.6488C-0.313387 26.4747 1.01785 42.4365 1.78305 45.2279C2.45413 47.6759 3.95975 49.7029 5.82466 50.6689C7.36222 51.4653 7.57316 51.2931 6.96848 49.7341C6.4907 48.5034 4.93297 33.6965 4.91364 30.2089C4.89977 27.6814 6.50835 24.3108 8.42872 22.844C9.87719 21.737 10.5903 21.6015 23.0761 20.0593C30.2949 19.1678 37.0519 18.4271 38.092 18.4136L39.9829 18.3888L38.3327 16.9291C36.1951 15.0388 34.1731 14.5152 30.4344 14.8843C27.9686 15.1276 27.4904 15.0767 27.6824 14.5914C27.8102 14.2686 28.6918 12.0588 29.6415 9.68158C30.5916 7.30391 31.3589 5.22045 31.3467 5.05167C31.3345 4.88247 30.1041 7.15912 28.612 10.1109C27.1202 13.0627 25.7591 15.4833 25.5873 15.4909C25.4158 15.498 23.29 15.7762 20.8632 16.1087C13.6784 17.0932 14.6374 17.6244 11.1714 10.7422C8.40729 5.25454 7.32524 3.31671 7.93959 4.95486Z" fill="#282D34"/>
<g clip-path="url(#clip0_144_49636)">
<path fill-rule="evenodd" clip-rule="evenodd" d="M24.2667 50.899C23.0982 50.899 22.0005 50.68 20.9737 50.242C19.9468 49.7922 19.0439 49.1825 18.2649 48.413C17.4977 47.6317 16.8899 46.7261 16.4413 45.6962C16.0046 44.6663 15.7863 43.5653 15.7863 42.3934V36.7466H12.9203C11.5866 36.7466 10.5054 35.6653 10.5054 34.3316C10.5054 32.9978 11.5866 31.9166 12.9203 31.9166H15.7863V26.7243C15.7863 25.3945 16.8643 24.3165 18.1941 24.3165C19.5239 24.3165 20.6019 25.3945 20.6019 26.7243V31.9166H25.5165C26.8503 31.9166 27.9315 32.9978 27.9315 34.3316C27.9315 35.6653 26.8503 36.7466 25.5165 36.7466H20.6019V42.3934C20.6019 42.9024 20.6963 43.3818 20.8852 43.8317C21.074 44.2697 21.3337 44.6544 21.6642 44.9859C21.9946 45.3174 22.3841 45.5837 22.8326 45.785C23.2812 45.9744 23.7592 46.0691 24.2667 46.0691H25.5165C26.8503 46.0691 27.9315 47.1503 27.9315 48.4841C27.9315 49.8178 26.8503 50.899 25.5165 50.899H24.2667ZM38.4657 50.899C37.0055 50.899 35.6974 49.9966 35.1789 48.6316L30.129 35.3361C29.4953 33.6676 30.7278 31.8811 32.5126 31.8811C33.5967 31.8811 34.5623 32.5666 34.9197 33.5901L38.4657 43.7429L41.9937 33.598C42.3512 32.5701 43.3203 31.8811 44.4086 31.8811C46.1983 31.8811 47.4342 33.6725 46.7987 35.3456L41.7524 48.6316C41.234 49.9966 39.9258 50.899 38.4657 50.899ZM79.0001 48.4647C79.0001 49.8091 77.9102 50.899 76.5657 50.899C75.2212 50.899 74.1313 49.8091 74.1313 48.4647V26.7509C74.1313 25.4064 75.2212 24.3165 76.5657 24.3165C77.9102 24.3165 79.0001 25.4064 79.0001 26.7509V48.4647ZM70.8013 34.3322C71.4382 35.0609 71.2839 36.1422 70.6023 36.8292L69.291 38.151C68.7938 38.6522 67.9283 38.4559 67.4922 37.9008C67.1853 37.4983 66.8371 37.1609 66.4476 36.8886C66.0699 36.6163 65.6568 36.4092 65.2083 36.2671C64.7598 36.1251 64.2995 36.054 63.8273 36.054C63.1664 36.054 62.5408 36.1902 61.9507 36.4624C61.3723 36.7347 60.8648 37.1195 60.4281 37.6167C60.0032 38.102 59.6668 38.6821 59.4189 39.3569C59.1711 40.0316 59.0471 40.7774 59.0471 41.5943C59.0471 42.2572 59.1711 42.8787 59.4189 43.4588C59.6668 44.0389 60.0032 44.5479 60.4281 44.9859C60.8648 45.4239 61.3723 45.7672 61.9507 46.0158C62.5408 46.2644 63.1664 46.3887 63.8273 46.3887C64.2995 46.3887 64.7539 46.3236 65.1906 46.1934C65.6273 46.0632 66.0345 45.8797 66.4122 45.6429C66.8017 45.3943 67.144 45.0984 67.439 44.7551C67.877 44.2482 68.692 44.0965 69.1638 44.572L70.436 45.8544C71.1812 46.6056 71.2992 47.8056 70.5356 48.5381C70.4155 48.6533 70.2922 48.7655 70.1655 48.8747C69.5872 49.3838 68.9557 49.8159 68.2712 50.171C67.5984 50.5261 66.8843 50.7925 66.1289 50.9701C65.3853 51.1595 64.6181 51.2542 63.8273 51.2542C62.4936 51.2542 61.2366 51.0056 60.0563 50.5084C58.8878 49.9993 57.8609 49.3068 56.9757 48.4308C56.1023 47.5548 55.4118 46.5308 54.9043 45.3588C54.3968 44.1868 54.143 42.932 54.143 41.5943C54.143 40.1382 54.3968 38.7768 54.9043 37.5101C55.4118 36.2434 56.1023 35.1425 56.9757 34.2073C57.8609 33.2602 58.8878 32.5144 60.0563 31.9699C61.2366 31.4253 62.4936 31.153 63.8273 31.153C64.6181 31.153 65.3912 31.2537 66.1466 31.4549C66.9138 31.6562 67.6397 31.9521 68.3243 32.3428C69.0206 32.7216 69.658 33.1892 70.2364 33.7456C70.4339 33.9319 70.6222 34.1274 70.8013 34.3322ZM52.0337 49.0806C52.1871 48.7018 52.2638 48.2993 52.2638 47.8731C52.2638 47.4588 52.1871 47.0681 52.0337 46.7012C51.8802 46.3342 51.6678 46.0145 51.3963 45.7423C51.1248 45.47 50.8061 45.2569 50.4403 45.103C50.0744 44.9373 49.679 44.8544 49.2541 44.8544C48.8409 44.8544 48.4455 44.9373 48.0679 45.103C47.702 45.2569 47.3774 45.47 47.0941 45.7423C46.8226 46.0145 46.6043 46.3342 46.439 46.7012C46.2856 47.0681 46.2089 47.4588 46.2089 47.8731C46.2089 48.2993 46.2856 48.7018 46.439 49.0806C46.6043 49.4476 46.8226 49.7672 47.0941 50.0395C47.3774 50.3118 47.702 50.5249 48.0679 50.6788C48.4455 50.8445 48.8409 50.9274 49.2541 50.9274C49.679 50.9274 50.0744 50.8445 50.4403 50.6788C50.8061 50.5249 51.1248 50.3118 51.3963 50.0395C51.6678 49.7672 51.8802 49.4476 52.0337 49.0806Z" fill="#282D34"/>
</g>
<defs>
<clipPath id="clip0_144_49636">
<rect width="68.4947" height="26.9377" fill="white" transform="translate(10.5054 24.3165)"/>
</clipPath>
</defs>
</svg>
