<svg width="240" height="88" viewBox="0 0 240 88" fill="none" xmlns="http://www.w3.org/2000/svg">
<path d="M7.04 83.985C4.95 83.985 3.41 83.71 2.365 83.105C1.32 82.5 0.66 81.675 0.385 80.575C0.11 79.475 0 78.155 0 76.67V11.77C0 10.34 0.165 9.13001 0.495 8.19501C0.825 7.26001 1.485 6.43501 2.53 5.88501C3.575 5.33501 5.115 5.06001 7.205 5.06001C8.855 5.06001 10.12 5.22501 11.055 5.61001C11.99 5.99501 12.65 6.49001 13.035 7.15001C13.42 7.81001 13.64 8.52501 13.75 9.29501C13.86 10.065 13.915 10.78 13.915 11.44L13.585 18.975C14.685 17.105 16.06 15.345 17.655 13.64C19.305 11.935 21.175 10.45 23.375 9.07501C25.575 7.70001 27.94 6.65501 30.47 5.88501C33.055 5.11501 35.805 4.73001 38.72 4.73001C43.505 4.73001 47.905 5.55501 51.975 7.26001C55.99 8.96501 59.455 11.385 62.37 14.63C65.23 17.82 67.485 21.67 69.08 26.125C70.675 30.58 71.445 35.64 71.445 41.305V76.78C71.445 78.32 71.28 79.64 71.06 80.685C70.785 81.785 70.125 82.61 69.08 83.16C68.035 83.71 66.495 83.985 64.405 83.985C62.205 83.985 60.61 83.71 59.565 83.105C58.52 82.5 57.86 81.675 57.53 80.575C57.2 79.475 57.035 78.155 57.035 76.67V41.14C57.035 36.575 56.265 32.615 54.725 29.205C53.185 25.85 50.93 23.21 47.85 21.285C44.825 19.36 40.92 18.425 36.245 18.425C31.79 18.425 27.885 19.36 24.585 21.285C21.285 23.21 18.7 25.85 16.885 29.205C15.07 32.56 14.19 36.575 14.19 41.14V76.78C14.19 78.32 14.025 79.64 13.695 80.685C13.365 81.785 12.705 82.61 11.66 83.16C10.67 83.71 9.075 83.985 7.04 83.985Z" fill="white"/>
<path d="M98.0651 84.095C95.9751 84.095 94.4351 83.82 93.3901 83.215C92.3451 82.61 91.6851 81.73 91.4101 80.575C91.1351 79.42 91.0251 78.1 91.0251 76.56V12.21C91.0251 10.56 91.1901 9.24 91.5201 8.14C91.8501 7.04 92.5101 6.27 93.5001 5.775C94.4901 5.28 96.0852 5.06 98.2302 5.06C100.21 5.06 101.695 5.28 102.74 5.775C103.785 6.27 104.5 6.985 104.885 7.92C105.27 8.855 105.435 9.9 105.435 11.11L104.775 16.005C105.545 14.575 106.425 13.2 107.47 11.77C108.515 10.34 109.835 9.075 111.375 7.92C112.97 6.765 114.84 5.83 117.095 5.06C119.35 4.29 122.1 3.905 125.345 3.905C126.995 3.905 128.535 4.015 130.02 4.29C131.505 4.565 132.88 4.95 134.255 5.5C135.63 6.05 136.785 6.655 137.775 7.37C138.765 8.085 139.535 8.855 140.14 9.68C140.745 10.505 141.02 11.44 141.02 12.54C141.02 14.96 140.25 16.995 138.71 18.645C137.17 20.35 135.63 21.175 133.98 21.175C132.55 21.175 131.505 21.01 130.9 20.625C130.24 20.24 129.635 19.855 129.03 19.415C128.425 18.975 127.6 18.59 126.5 18.205C125.4 17.82 123.695 17.655 121.275 17.655C119.625 17.655 117.92 17.985 116.105 18.645C114.29 19.305 112.585 20.24 110.935 21.505C109.285 22.77 107.965 24.365 106.92 26.345C105.875 28.325 105.38 30.58 105.38 33.22V77C105.38 78.54 105.215 79.86 104.885 80.905C104.555 81.95 103.895 82.83 102.85 83.38C101.86 83.875 100.21 84.095 98.0651 84.095Z" fill="white"/>
<path d="M200.84 36.795C198.86 35.86 195.945 35.97 193.8 36.96C192.645 37.51 191.765 38.225 191.105 39.16C190.61 39.93 190.28 40.755 190.225 41.635H202.435C203.15 41.635 203.425 41.525 203.59 41.47C203.59 41.47 203.755 41.305 203.755 40.645C203.755 39.82 203.535 39.105 202.985 38.445C202.49 37.785 201.775 37.235 200.84 36.795Z" fill="white"/>
<path d="M182.14 0C163.165 0 147.16 12.045 141 28.875C148.26 30.25 153.87 36.355 153.87 44C153.87 51.645 148.26 57.75 141 59.125C147.215 75.955 163.22 88 182.14 88C206.45 88 226.14 68.31 226.14 44C226.14 19.69 206.45 0 182.14 0ZM179.5 55.165C177.63 56.54 175.1 57.2 172.075 57.2C171.25 57.2 170.315 57.09 169.38 56.925C168.445 56.76 167.565 56.485 166.685 56.155C165.805 55.825 164.98 55.385 164.375 54.945C163.66 54.45 163.165 53.9 162.78 53.24C162.56 52.855 162.45 52.415 162.395 52.085C162.34 51.7 162.395 51.26 162.615 50.875C162.78 50.545 163 50.215 163.33 49.885C163.77 49.335 164.265 49.06 164.815 49.115C165.31 49.115 165.86 49.39 166.465 49.94C166.74 50.105 167.18 50.38 167.675 50.655C168.17 50.93 168.665 51.205 169.16 51.37C169.71 51.59 170.205 51.755 170.755 51.92C171.25 52.03 171.745 52.14 172.24 52.14C173.67 52.14 174.825 51.865 175.705 51.315C176.475 50.82 176.86 50.27 176.86 49.5C176.86 49.06 176.75 48.62 176.585 48.345C176.365 48.015 176.145 47.74 175.815 47.465C175.43 47.19 175.045 46.97 174.55 46.805C174.055 46.585 173.505 46.42 172.9 46.255C172.295 46.09 171.635 45.87 171.03 45.705C170.095 45.485 169.16 45.21 168.28 44.88C167.345 44.55 166.465 44.11 165.75 43.615C164.98 43.065 164.32 42.35 163.825 41.525C163.33 40.645 163.055 39.545 163.055 38.28C163.055 36.74 163.44 35.42 164.21 34.265C164.98 33.165 166.08 32.285 167.51 31.68C168.885 31.075 170.48 30.8 172.295 30.8C173.065 30.8 173.78 30.855 174.495 30.965C175.21 31.075 175.87 31.24 176.475 31.46C177.135 31.735 177.74 31.955 178.235 32.285C178.84 32.615 179.39 33 179.94 33.385C180.655 33.88 181.095 34.485 181.15 35.145C181.205 35.805 180.93 36.465 180.435 37.07C180.05 37.62 179.61 37.95 179.115 38.115C178.73 38.225 178.07 38.28 177.41 37.73C176.915 37.345 176.365 37.015 175.815 36.74C175.21 36.465 174.605 36.19 174 36.025C172.735 35.585 171.25 35.695 170.15 36.08C169.6 36.3 169.215 36.575 168.885 36.96C168.61 37.345 168.445 37.785 168.445 38.28C168.445 38.665 168.555 38.995 168.72 39.215C168.94 39.49 169.27 39.71 169.655 39.93C170.04 40.15 170.59 40.315 171.195 40.535C171.8 40.7 172.46 40.92 173.12 41.03C174.11 41.25 175.155 41.58 176.2 41.91C177.245 42.24 178.29 42.68 179.17 43.23C180.105 43.78 180.82 44.605 181.425 45.54C182.03 46.53 182.305 47.795 182.305 49.335C182.415 51.755 181.425 53.735 179.5 55.165ZM191.325 48.785C192.095 49.775 193.085 50.545 194.24 51.095C195.45 51.645 196.66 51.92 197.815 51.92C198.695 51.92 199.52 51.865 200.18 51.755C200.84 51.645 201.39 51.535 201.83 51.37C202.325 51.205 202.765 51.04 203.095 50.875C203.425 50.71 203.755 50.545 204.03 50.38C204.36 50.16 204.69 50.05 205.02 49.94C205.46 49.83 205.9 49.885 206.34 50.05C206.78 50.215 207.11 50.545 207.33 51.04C207.55 51.26 207.715 51.59 207.77 51.92C207.825 52.195 207.88 52.525 207.88 52.855C207.88 53.57 207.385 54.23 206.395 54.945C205.515 55.55 204.305 56.1 202.82 56.54C201.335 56.98 199.63 57.145 197.705 57.145C195.56 57.145 193.635 56.815 191.985 56.1C190.335 55.385 188.905 54.395 187.695 53.185C186.54 51.975 185.605 50.49 185.055 48.895C184.45 47.3 184.175 45.54 184.175 43.725C184.175 41.25 184.725 39.05 185.88 37.125C187.035 35.2 188.63 33.66 190.61 32.505C192.59 31.405 194.955 30.8 197.54 30.8C199.3 30.8 200.95 31.075 202.325 31.625C203.755 32.175 204.965 32.945 205.955 33.88C206.945 34.815 207.77 35.86 208.32 37.015C208.87 38.17 209.145 39.38 209.145 40.535C209.145 42.46 208.65 43.835 207.715 44.66C206.78 45.485 205.625 45.87 204.305 45.87H190.17C190.335 47.025 190.665 47.96 191.325 48.785Z" fill="white"/>
</svg>
