<svg width="88" height="30" viewBox="0 0 88 30" fill="none" xmlns="http://www.w3.org/2000/svg">
<g clip-path="url(#clip0_145_819)">
<path d="M2.25463 10.2188C1.99296 9.75251 1.60789 9.36939 1.14276 9.1125C0.782315 8.93347 0.396947 8.81122 0 8.75L0 30H0.302677C0.651004 29.9228 0.987553 29.7988 1.30336 29.6312C1.8295 29.3244 2.24012 28.8496 2.47083 28.2812C2.71534 27.685 2.85739 27.0509 2.89087 26.4062C2.97735 25.5625 3.01441 24.3437 3.01441 22.7437V15.9937C3.03765 14.6797 2.99228 13.3654 2.87852 12.0562C2.81468 11.403 2.60106 10.7738 2.25463 10.2188Z" fill="#089EE7"/>
<path d="M16.9253 29.6312C17.4386 29.3147 17.8372 28.8391 18.0619 28.275C18.302 27.6773 18.4438 27.044 18.4819 26.4C18.5622 25.55 18.6055 24.3375 18.6055 22.75V16.925C18.6332 15.4637 18.5651 14.0022 18.4016 12.55C18.3156 11.7525 18.0516 10.9853 17.6295 10.3062C17.1903 9.64604 16.5728 9.12752 15.8505 8.81249C15.0414 8.45134 14.1651 8.27017 13.2808 8.28124C12.3083 8.2813 11.3474 8.49453 10.4641 8.90624C9.64475 9.26272 8.93149 9.82929 8.39476 10.55C7.85051 11.2875 7.48452 12.1437 7.32613 13.05C7.12063 14.5678 7.03594 16.0998 7.07287 17.6312V22.9937V25.0187C7.04478 25.9303 7.1173 26.8422 7.28906 27.7375C7.4227 28.2901 7.715 28.7902 8.12915 29.175C8.64298 29.5836 9.24348 29.866 9.88344 30H15.9061C16.2597 29.9208 16.6022 29.7969 16.9253 29.6312Z" fill="#089EE7"/>
<path d="M69.5107 0H0V8.01875L6.68977 7.13125C6.93222 8.10218 7.06077 9.09863 7.07275 10.1V10.5438C8.10171 9.45132 9.34171 8.58465 10.7157 7.9976C12.0897 7.41055 13.5683 7.11566 15.0597 7.13125C17.0415 7.03399 18.9985 7.61041 20.6191 8.76875C21.3085 9.30781 21.8585 10.0078 22.2221 10.809C22.5857 11.6101 22.7521 12.4884 22.7069 13.3688V25C22.6789 25.9116 22.7514 26.8235 22.9231 27.7188C23.0543 28.2723 23.347 28.7732 23.7632 29.1563C24.2745 29.5727 24.8755 29.8617 25.5175 30H28.0501C28.3916 29.9196 28.7216 29.7957 29.0323 29.6313C29.5437 29.3153 29.9419 28.8423 30.1688 28.2813C30.4076 27.6832 30.5494 27.05 30.5889 26.4063C30.6671 25.5729 30.7063 24.3521 30.7063 22.7438V15.9938C30.7295 14.6797 30.6841 13.3654 30.5704 12.0563C30.5111 11.4029 30.2994 10.7731 29.9526 10.2188C29.691 9.75251 29.3059 9.36939 28.8408 9.1125C28.2561 8.85088 27.6267 8.70654 26.9876 8.6875V8.125L33.9678 7.14375C34.2499 8.53051 34.405 9.94065 34.431 11.3563C34.9752 10.3317 35.7367 9.44161 36.661 8.75C38.1542 7.67828 39.945 7.11369 41.7756 7.1375C42.7397 7.06254 43.6982 7.34217 44.475 7.925C44.7386 8.13168 44.9515 8.3971 45.0972 8.70062C45.2429 9.00414 45.3175 9.33758 45.315 9.675C45.3222 9.90711 45.2814 10.1382 45.1952 10.3534C45.1091 10.5687 44.9795 10.7633 44.8147 10.925C44.6442 11.0903 44.4426 11.2192 44.2219 11.304C44.0011 11.3888 43.7658 11.4278 43.5299 11.4188C43.2243 11.4179 42.9226 11.3491 42.6462 11.2174C42.3698 11.0856 42.1253 10.8941 41.93 10.6563L41.0899 9.725C40.7949 9.38829 40.4325 9.11887 40.0267 8.93462C39.621 8.75036 39.1812 8.65548 38.7365 8.65625C37.501 8.65625 36.5559 9.4625 35.8641 11.0625C35.1723 12.6625 34.8387 14.9 34.8387 17.7688V22.8813V24.9625C34.8106 25.8741 34.8831 26.786 35.0549 27.6813C35.1885 28.2338 35.4809 28.734 35.895 29.1188C36.4123 29.5521 37.0243 29.8542 37.6802 30H43.0789C42.8574 29.6215 42.7401 29.1899 42.7392 28.75C42.7239 28.4043 42.7797 28.0592 42.903 27.7364C43.0263 27.4137 43.2146 27.1203 43.4557 26.875C43.8925 26.4244 44.4772 26.1514 45.0994 26.1074C45.7216 26.0635 46.3382 26.2517 46.8326 26.6364C47.3269 27.0212 47.6649 27.5759 47.7825 28.1957C47.9001 28.8154 47.7892 29.4573 47.4708 30H51.6836V24.9H52.0172C52.3141 26.1531 52.8129 27.3483 53.4935 28.4375C53.8788 29.032 54.3564 29.5597 54.908 30H59.5964C59.9394 29.6865 60.2085 29.2992 60.3838 28.8665C60.5591 28.4338 60.6363 27.9669 60.6095 27.5C60.6264 26.6552 60.3609 25.8293 59.8559 25.1563C59.5509 24.7785 59.193 24.4479 58.7934 24.175C58.3816 23.8833 57.6651 23.4667 56.6438 22.925C55.3597 22.3076 54.1731 21.5009 53.1229 20.5313C52.3237 19.6927 51.8803 18.5711 51.8875 17.4063C51.8577 16.1834 52.301 14.9971 53.1229 14.1C53.6143 13.5709 54.212 13.1544 54.8758 12.8784C55.5396 12.6024 56.254 12.4734 56.9712 12.5C57.6565 12.4935 58.3365 12.6231 58.9726 12.8813L59.6829 13.2C59.8791 13.2819 60.0885 13.3263 60.3006 13.3313C60.5683 13.3313 60.8216 13.1229 61.0604 12.7063H61.4804L61.709 17.5438H61.2704C61.1529 16.9824 60.9876 16.4325 60.7763 15.9C60.5862 15.4672 60.3344 15.065 60.0288 14.7063C59.6128 14.1906 59.098 13.7654 58.5155 13.4563C57.9951 13.1648 57.4115 13.0081 56.8168 13C56.4413 12.9949 56.0689 13.069 55.7233 13.2175C55.3777 13.366 55.0664 13.5857 54.8092 13.8625C54.5385 14.1419 54.3257 14.4733 54.1836 14.8372C54.0414 15.2011 53.9727 15.5901 53.9815 15.9813C53.9857 16.6797 54.253 17.3503 54.7289 17.8563C55.3775 18.5126 56.1508 19.0292 57.0021 19.375L59.232 20.4C60.4029 20.8899 61.4301 21.6753 62.2155 22.6813C62.8807 23.6153 63.2275 24.7428 63.2039 25.8938C63.2251 26.5793 63.1091 27.2622 62.8628 27.9013C62.6165 28.5403 62.2451 29.1224 61.7708 29.6125C61.6349 29.75 61.499 29.8813 61.3569 30H69.35C68.4834 29.4578 67.7266 28.7536 67.1201 27.925C65.8914 26.2074 65.2613 24.1255 65.3288 22.0063C65.3288 18.8063 66.4592 16.3063 68.72 14.5063C70.3092 13.2049 72.2968 12.5044 74.3411 12.525C75.4119 12.5193 76.4728 12.7319 77.4605 13.15C78.6786 13.6492 79.7136 14.5184 80.4227 15.6378C81.1319 16.7573 81.4804 18.0717 81.4201 19.4H69.0659C69.0103 20.1 68.9794 20.6 68.9794 20.9125C68.9782 22.1412 69.1594 23.3632 69.5168 24.5375C69.8162 25.6006 70.3108 26.5971 70.9746 27.475C71.6022 28.2738 72.4033 28.9154 73.3157 29.35C74.2271 29.8022 75.2286 30.0373 76.2437 30.0375C76.9774 30.04 77.7056 29.9087 78.3933 29.65C79.0257 29.4217 79.6028 29.0595 80.0858 28.5875C80.6937 27.902 81.1394 27.0856 81.3892 26.2L81.8277 26.35C81.5582 27.8358 80.7413 29.1626 79.5422 30.0625H83.5264C84 30.0642 84.4691 29.9703 84.9062 29.7863C85.3434 29.6022 85.7399 29.3317 86.0724 28.9906C86.405 28.6494 86.6669 28.2446 86.8428 27.7998C87.0187 27.3549 87.105 26.879 87.0968 26.4V17.7938C87.0968 13.0746 85.244 8.54865 81.9459 5.21167C78.6479 1.87469 74.1748 0 69.5107 0V0Z" fill="#089EE7"/>
<path d="M75.9779 13.575C75.3805 13.1739 74.681 12.9568 73.9642 12.95C73.3551 12.9568 72.7553 13.1019 72.209 13.3745C71.6627 13.647 71.1839 14.0402 70.8077 14.525C69.8806 15.6462 69.3196 17.0305 69.2017 18.4875H78.2634C78.2351 17.3505 77.9699 16.2324 77.4851 15.2062C77.1257 14.5433 76.6075 13.9824 75.9779 13.575Z" fill="#089EE7"/>
</g>
<defs>
<clipPath id="clip0_145_819">
<rect width="87.0968" height="30" fill="white"/>
</clipPath>
</defs>
</svg>
