<svg width="519" height="292" viewBox="0 0 519 292" fill="none" xmlns="http://www.w3.org/2000/svg">
<path d="M0 0H519V292H0V0Z" fill="#E0E0E0"/>
<path fill-rule="evenodd" clip-rule="evenodd" d="M175.586 84.2659C172.181 87.6764 177.432 93.4901 181.136 90.4108C184.128 87.9233 182.4 83 178.535 83C177.608 83 176.281 83.5697 175.586 84.2659ZM238.585 85.6151C236.948 87.591 238.652 92.4942 240.975 92.4942C246.195 92.4942 247.785 84.8588 242.689 84.2648C241.156 84.0866 239.363 84.6763 238.585 85.6151ZM180.899 93.5492C181.225 94.4195 183.969 101.439 186.997 109.147C190.025 116.855 192.283 123.382 192.015 123.65C191.746 123.919 187.537 124.665 182.661 125.308C177.523 125.986 172.353 127.355 170.363 128.566C166.565 130.877 162.282 137.558 161.168 142.909C160.215 147.485 163.551 187.49 165.469 194.487C167.151 200.622 170.924 205.703 175.599 208.124C179.452 210.119 179.981 209.688 178.465 205.781C177.268 202.696 173.364 165.585 173.315 156.844C173.28 150.509 177.312 142.062 182.125 138.385C185.755 135.611 187.543 135.271 218.836 131.406C236.929 129.172 253.864 127.315 256.471 127.281L261.21 127.219L257.074 123.56C251.717 118.823 246.649 117.511 237.279 118.436C231.098 119.045 229.9 118.918 230.381 117.701C230.701 116.892 232.911 111.354 235.291 105.396C237.673 99.4366 239.596 94.2148 239.565 93.7918C239.535 93.3677 236.451 99.0737 232.711 106.472C228.972 113.87 225.561 119.937 225.13 119.956C224.7 119.974 219.372 120.671 213.29 121.504C195.283 123.972 197.686 125.303 188.999 108.054C182.071 94.3003 179.359 89.4434 180.899 93.5492Z" fill="#707A87"/>
<g clip-path="url(#clip0_355_28752)">
<path fill-rule="evenodd" clip-rule="evenodd" d="M221.82 208.7C218.892 208.7 216.141 208.151 213.567 207.053C210.993 205.926 208.73 204.398 206.778 202.469C204.855 200.511 203.332 198.241 202.207 195.66C201.113 193.079 200.566 190.319 200.566 187.382V173.229H193.383C190.04 173.229 187.33 170.519 187.33 167.177C187.33 163.834 190.04 161.124 193.383 161.124H200.566V148.11C200.566 144.777 203.267 142.076 206.6 142.076C209.933 142.076 212.635 144.777 212.635 148.11V161.124H224.953C228.296 161.124 231.006 163.834 231.006 167.177C231.006 170.519 228.296 173.229 224.953 173.229H212.635V187.382C212.635 188.658 212.872 189.859 213.345 190.987C213.818 192.085 214.469 193.049 215.298 193.88C216.126 194.711 217.102 195.378 218.226 195.882C219.35 196.357 220.548 196.595 221.82 196.595H224.953C228.296 196.595 231.006 199.304 231.006 202.647C231.006 205.99 228.296 208.7 224.953 208.7H221.82ZM257.408 208.7C253.748 208.7 250.469 206.438 249.17 203.017L236.513 169.694C234.925 165.512 238.014 161.035 242.487 161.035C245.204 161.035 247.624 162.753 248.52 165.318L257.408 190.764L266.25 165.338C267.146 162.762 269.575 161.035 272.303 161.035C276.788 161.035 279.886 165.525 278.293 169.718L265.645 203.017C264.346 206.438 261.067 208.7 257.408 208.7ZM359 202.599C359 205.968 356.268 208.7 352.899 208.7C349.529 208.7 346.797 205.968 346.797 202.599V148.177C346.797 144.807 349.529 142.076 352.899 142.076C356.268 142.076 359 144.807 359 148.177V202.599ZM338.451 167.178C340.047 169.004 339.661 171.714 337.953 173.436L334.666 176.749C333.42 178.005 331.251 177.514 330.158 176.122C329.388 175.113 328.516 174.268 327.539 173.585C326.593 172.903 325.557 172.384 324.433 172.028C323.309 171.672 322.156 171.494 320.972 171.494C319.316 171.494 317.748 171.835 316.269 172.517C314.819 173.2 313.547 174.164 312.453 175.41C311.388 176.627 310.545 178.08 309.923 179.772C309.302 181.463 308.992 183.332 308.992 185.379C308.992 187.041 309.302 188.598 309.923 190.052C310.545 191.506 311.388 192.782 312.453 193.88C313.547 194.978 314.819 195.838 316.269 196.461C317.748 197.084 319.316 197.396 320.972 197.396C322.156 197.396 323.294 197.232 324.389 196.906C325.484 196.58 326.504 196.12 327.451 195.526C328.427 194.903 329.285 194.162 330.024 193.301C331.122 192.031 333.165 191.651 334.347 192.842L337.536 196.057C339.403 197.939 339.699 200.947 337.785 202.783C337.484 203.071 337.175 203.353 336.858 203.626C335.408 204.902 333.826 205.985 332.11 206.875C330.424 207.765 328.634 208.433 326.741 208.878C324.877 209.353 322.954 209.59 320.972 209.59C317.629 209.59 314.479 208.967 311.521 207.721C308.592 206.445 306.019 204.709 303.8 202.514C301.611 200.318 299.88 197.752 298.608 194.814C297.336 191.877 296.7 188.732 296.7 185.379C296.7 181.73 297.336 178.318 298.608 175.143C299.88 171.968 301.611 169.209 303.8 166.865C306.019 164.491 308.592 162.622 311.521 161.257C314.479 159.893 317.629 159.21 320.972 159.21C322.954 159.21 324.892 159.462 326.785 159.967C328.708 160.471 330.527 161.213 332.243 162.192C333.988 163.141 335.586 164.313 337.035 165.708C337.53 166.175 338.002 166.665 338.451 167.178ZM291.413 204.142C291.798 203.193 291.99 202.184 291.99 201.116C291.99 200.078 291.798 199.099 291.413 198.179C291.029 197.259 290.496 196.458 289.816 195.775C289.136 195.093 288.337 194.559 287.42 194.173C286.503 193.758 285.512 193.55 284.447 193.55C283.411 193.55 282.42 193.758 281.474 194.173C280.557 194.559 279.743 195.093 279.033 195.775C278.353 196.458 277.806 197.259 277.391 198.179C277.007 199.099 276.815 200.078 276.815 201.116C276.815 202.184 277.007 203.193 277.391 204.142C277.806 205.062 278.353 205.863 279.033 206.546C279.743 207.228 280.557 207.762 281.474 208.148C282.42 208.563 283.411 208.771 284.447 208.771C285.512 208.771 286.503 208.563 287.42 208.148C288.337 207.762 289.136 207.228 289.816 206.546C290.496 205.863 291.029 205.062 291.413 204.142Z" fill="#707A87"/>
</g>
<defs>
<clipPath id="clip0_355_28752">
<rect width="171.67" height="67.5146" fill="white" transform="translate(187.33 142.076)"/>
</clipPath>
</defs>
</svg>
