<svg width="356" height="155" viewBox="0 0 356 155" fill="none" xmlns="http://www.w3.org/2000/svg">
<path d="M0 8C0 3.58172 3.58172 0 8 0H348C352.418 0 356 3.58172 356 8V155H0V8Z" fill="#F9F9F9"/>
<path fill-rule="evenodd" clip-rule="evenodd" d="M122.577 36.8311C120.341 39.0704 123.789 42.8874 126.221 40.8657C128.185 39.2325 127.051 36 124.513 36C123.904 36 123.033 36.374 122.577 36.8311ZM163.939 37.717C162.865 39.0143 163.984 42.2336 165.509 42.2336C168.936 42.2336 169.98 37.2204 166.634 36.8305C165.628 36.7134 164.45 37.1006 163.939 37.717ZM126.065 42.9262C126.279 43.4976 128.081 48.1063 130.069 53.1673C132.057 58.2283 133.539 62.5135 133.363 62.6895C133.187 62.8661 130.424 63.3558 127.222 63.7783C123.848 64.2229 120.454 65.122 119.147 65.9171C116.654 67.4346 113.842 71.821 113.11 75.334C112.484 78.3386 114.675 104.605 115.934 109.198C117.038 113.227 119.516 116.562 122.585 118.152C125.115 119.462 125.462 119.179 124.467 116.614C123.681 114.588 121.118 90.2226 121.086 84.4835C121.063 80.3243 123.71 74.7778 126.87 72.364C129.254 70.5424 130.427 70.3194 150.973 67.7816C162.852 66.3147 173.972 65.0956 175.683 65.0735L178.795 65.0326L176.079 62.6306C172.562 59.52 169.234 58.6584 163.082 59.2658C159.024 59.6662 158.237 59.5824 158.553 58.7838C158.764 58.2525 160.214 54.6163 161.777 50.7044C163.341 46.7917 164.603 43.3633 164.583 43.0855C164.563 42.8071 162.538 46.5535 160.083 51.4108C157.628 56.2682 155.388 60.2514 155.106 60.2639C154.823 60.2757 151.325 60.7335 147.332 61.2807C135.509 62.9007 137.087 63.7748 131.383 52.4498C126.835 43.4194 125.054 40.2305 126.065 42.9262Z" fill="#CAD4E1"/>
<g clip-path="url(#clip0_344_28649)">
<path fill-rule="evenodd" clip-rule="evenodd" d="M152.933 118.53C151.01 118.53 149.203 118.17 147.514 117.449C145.824 116.709 144.338 115.706 143.056 114.439C141.794 113.154 140.793 111.663 140.055 109.969C139.337 108.274 138.977 106.462 138.977 104.534V95.2414H134.261C132.067 95.2414 130.287 93.4622 130.287 91.2674C130.287 89.0726 132.067 87.2934 134.261 87.2934H138.977V78.7492C138.977 76.5609 140.751 74.787 142.94 74.787C145.128 74.787 146.902 76.5609 146.902 78.7492V87.2934H154.989C157.184 87.2934 158.963 89.0726 158.963 91.2674C158.963 93.4622 157.184 95.2414 154.989 95.2414H146.902V104.534C146.902 105.371 147.057 106.16 147.368 106.9C147.679 107.621 148.106 108.254 148.65 108.8C149.194 109.345 149.835 109.784 150.573 110.115C151.311 110.426 152.097 110.582 152.933 110.582H154.989C157.184 110.582 158.963 112.362 158.963 114.556C158.963 116.751 157.184 118.53 154.989 118.53H152.933ZM176.298 118.53C173.895 118.53 171.743 117.045 170.889 114.799L162.579 92.9204C161.537 90.1748 163.565 87.235 166.502 87.235C168.286 87.235 169.875 88.363 170.463 90.0472L176.298 106.754L182.104 90.0603C182.692 88.3687 184.286 87.235 186.077 87.235C189.022 87.235 191.056 90.1829 190.011 92.9361L181.707 114.799C180.853 117.045 178.701 118.53 176.298 118.53ZM243 114.524C243 116.737 241.207 118.53 238.994 118.53C236.782 118.53 234.988 116.737 234.988 114.524V78.7929C234.988 76.5805 236.782 74.787 238.994 74.787C241.207 74.787 243 76.5805 243 78.7929V114.524ZM229.508 91.2685C230.556 92.4675 230.303 94.2469 229.181 95.3774L227.023 97.5526C226.205 98.3773 224.781 98.0543 224.063 97.1408C223.558 96.4784 222.985 95.9232 222.344 95.4752C221.723 95.0271 221.043 94.6862 220.305 94.4525C219.567 94.2187 218.809 94.1018 218.032 94.1018C216.945 94.1018 215.915 94.3259 214.944 94.7739C213.992 95.222 213.157 95.8551 212.439 96.6732C211.739 97.4719 211.186 98.4265 210.778 99.5369C210.37 100.647 210.166 101.875 210.166 103.219C210.166 104.31 210.37 105.332 210.778 106.287C211.186 107.241 211.739 108.079 212.439 108.8C213.157 109.521 213.992 110.086 214.944 110.495C215.915 110.904 216.945 111.108 218.032 111.108C218.809 111.108 219.557 111.001 220.276 110.787C220.994 110.573 221.664 110.271 222.286 109.881C222.927 109.472 223.49 108.985 223.976 108.42C224.696 107.586 226.037 107.336 226.814 108.119L228.907 110.229C230.134 111.465 230.328 113.44 229.071 114.645C228.874 114.835 228.671 115.019 228.462 115.199C227.511 116.037 226.471 116.748 225.345 117.332C224.238 117.917 223.063 118.355 221.82 118.647C220.596 118.959 219.334 119.115 218.032 119.115C215.838 119.115 213.769 118.706 211.827 117.887C209.904 117.05 208.214 115.91 206.757 114.469C205.32 113.027 204.184 111.342 203.349 109.413C202.514 107.485 202.096 105.42 202.096 103.219C202.096 100.823 202.514 98.5823 203.349 96.4979C204.184 94.4135 205.32 92.6018 206.757 91.0629C208.214 89.5044 209.904 88.2772 211.827 87.3811C213.769 86.485 215.838 86.0369 218.032 86.0369C219.334 86.0369 220.606 86.2025 221.849 86.5337C223.111 86.8648 224.306 87.3518 225.432 87.9947C226.578 88.6181 227.627 89.3876 228.579 90.3031C228.904 90.6096 229.214 90.9314 229.508 91.2685ZM198.625 115.538C198.877 114.915 199.004 114.252 199.004 113.551C199.004 112.869 198.877 112.226 198.625 111.622C198.372 111.019 198.023 110.493 197.576 110.044C197.129 109.596 196.605 109.246 196.003 108.993C195.401 108.72 194.75 108.583 194.051 108.583C193.371 108.583 192.721 108.72 192.099 108.993C191.497 109.246 190.963 109.596 190.497 110.044C190.05 110.493 189.691 111.019 189.419 111.622C189.166 112.226 189.04 112.869 189.04 113.551C189.04 114.252 189.166 114.915 189.419 115.538C189.691 116.142 190.05 116.668 190.497 117.116C190.963 117.564 191.497 117.915 192.099 118.168C192.721 118.441 193.371 118.577 194.051 118.577C194.75 118.577 195.401 118.441 196.003 118.168C196.605 117.915 197.129 117.564 197.576 117.116C198.023 116.668 198.372 116.142 198.625 115.538Z" fill="#CAD4E1"/>
</g>
<defs>
<clipPath id="clip0_344_28649">
<rect width="112.713" height="44.3278" fill="white" transform="translate(130.287 74.787)"/>
</clipPath>
</defs>
</svg>
