<svg width="308" height="155" viewBox="0 0 308 155" fill="none" xmlns="http://www.w3.org/2000/svg">
<path d="M0 8C0 3.58172 3.58172 0 8 0H300C304.418 0 308 3.58172 308 8V155H0V8Z" fill="#E0E0E0"/>
<path fill-rule="evenodd" clip-rule="evenodd" d="M98.5766 36.8311C96.341 39.0704 99.7888 42.8874 102.221 40.8657C104.185 39.2325 103.051 36 100.513 36C99.9042 36 99.033 36.374 98.5766 36.8311ZM139.939 37.717C138.865 39.0143 139.984 42.2336 141.509 42.2336C144.936 42.2336 145.98 37.2204 142.634 36.8305C141.628 36.7134 140.45 37.1006 139.939 37.717ZM102.065 42.9262C102.279 43.4976 104.081 48.1063 106.069 53.1673C108.057 58.2283 109.539 62.5135 109.363 62.6895C109.187 62.8661 106.424 63.3558 103.222 63.7783C99.8482 64.2229 96.4537 65.122 95.1475 65.9171C92.654 67.4346 89.8417 71.821 89.1101 75.334C88.4843 78.3386 90.6749 104.605 91.9341 109.198C93.0384 113.227 95.516 116.562 98.5849 118.152C101.115 119.462 101.462 119.179 100.467 116.614C99.6809 114.588 97.1175 90.2226 97.0857 84.4835C97.0629 80.3243 99.7099 74.7778 102.87 72.364C105.254 70.5424 106.427 70.3194 126.973 67.7816C138.852 66.3147 149.972 65.0956 151.683 65.0735L154.795 65.0326L152.079 62.6306C148.562 59.52 145.234 58.6584 139.082 59.2658C135.024 59.6662 134.237 59.5824 134.553 58.7838C134.764 58.2525 136.214 54.6163 137.777 50.7044C139.341 46.7917 140.603 43.3633 140.583 43.0855C140.563 42.8071 138.538 46.5535 136.083 51.4108C133.628 56.2682 131.388 60.2514 131.106 60.2639C130.823 60.2757 127.325 60.7335 123.332 61.2807C111.509 62.9007 113.087 63.7748 107.383 52.4498C102.835 43.4194 101.054 40.2305 102.065 42.9262Z" fill="#707A87"/>
<g clip-path="url(#clip0_344_28649)">
<path fill-rule="evenodd" clip-rule="evenodd" d="M128.933 118.53C127.01 118.53 125.203 118.17 123.514 117.449C121.824 116.709 120.338 115.706 119.056 114.439C117.794 113.154 116.793 111.663 116.055 109.969C115.337 108.274 114.977 106.462 114.977 104.534V95.2415H110.261C108.067 95.2415 106.287 93.4622 106.287 91.2675C106.287 89.0727 108.067 87.2934 110.261 87.2934H114.977V78.7492C114.977 76.5609 116.751 74.787 118.94 74.787C121.128 74.787 122.902 76.5609 122.902 78.7492V87.2934H130.989C133.184 87.2934 134.963 89.0727 134.963 91.2675C134.963 93.4622 133.184 95.2415 130.989 95.2415H122.902V104.534C122.902 105.371 123.057 106.16 123.368 106.901C123.679 107.621 124.106 108.254 124.65 108.8C125.194 109.345 125.835 109.784 126.573 110.115C127.311 110.426 128.097 110.582 128.933 110.582H130.989C133.184 110.582 134.963 112.362 134.963 114.556C134.963 116.751 133.184 118.53 130.989 118.53H128.933ZM152.298 118.53C149.895 118.53 147.743 117.045 146.889 114.799L138.579 92.9205C137.537 90.1749 139.565 87.235 142.502 87.235C144.286 87.235 145.875 88.3631 146.463 90.0473L152.298 106.754L158.104 90.0603C158.692 88.3687 160.286 87.235 162.077 87.235C165.022 87.235 167.056 90.183 166.011 92.9361L157.707 114.799C156.853 117.045 154.701 118.53 152.298 118.53ZM219 114.524C219 116.737 217.207 118.53 214.994 118.53C212.782 118.53 210.988 116.737 210.988 114.524V78.7929C210.988 76.5805 212.782 74.787 214.994 74.787C217.207 74.787 219 76.5805 219 78.7929V114.524ZM205.508 91.2685C206.556 92.4676 206.303 94.2469 205.181 95.3775L203.023 97.5526C202.205 98.3773 200.781 98.0544 200.063 97.1408C199.558 96.4785 198.985 95.9233 198.344 95.4752C197.723 95.0272 197.043 94.6863 196.305 94.4525C195.567 94.2187 194.809 94.1019 194.032 94.1019C192.945 94.1019 191.915 94.3259 190.944 94.7739C189.992 95.222 189.157 95.8551 188.439 96.6733C187.739 97.472 187.186 98.4265 186.778 99.5369C186.37 100.647 186.166 101.875 186.166 103.219C186.166 104.31 186.37 105.332 186.778 106.287C187.186 107.241 187.739 108.079 188.439 108.8C189.157 109.521 189.992 110.086 190.944 110.495C191.915 110.904 192.945 111.108 194.032 111.108C194.809 111.108 195.557 111.001 196.276 110.787C196.994 110.573 197.664 110.271 198.286 109.881C198.927 109.472 199.49 108.985 199.976 108.42C200.696 107.586 202.037 107.336 202.814 108.119L204.907 110.229C206.134 111.465 206.328 113.44 205.071 114.645C204.874 114.835 204.671 115.019 204.462 115.199C203.511 116.037 202.471 116.748 201.345 117.332C200.238 117.917 199.063 118.355 197.82 118.647C196.596 118.959 195.334 119.115 194.032 119.115C191.838 119.115 189.769 118.706 187.827 117.887C185.904 117.05 184.214 115.91 182.757 114.469C181.32 113.027 180.184 111.342 179.349 109.413C178.514 107.485 178.096 105.42 178.096 103.219C178.096 100.823 178.514 98.5824 179.349 96.498C180.184 94.4135 181.32 92.6019 182.757 91.0629C184.214 89.5045 185.904 88.2772 187.827 87.3811C189.769 86.485 191.838 86.0369 194.032 86.0369C195.334 86.0369 196.606 86.2025 197.849 86.5337C199.111 86.8649 200.306 87.3519 201.432 87.9947C202.578 88.6181 203.627 89.3876 204.579 90.3032C204.904 90.6097 205.214 90.9314 205.508 91.2685ZM174.625 115.538C174.877 114.915 175.004 114.252 175.004 113.551C175.004 112.869 174.877 112.226 174.625 111.622C174.372 111.019 174.023 110.493 173.576 110.045C173.129 109.596 172.605 109.246 172.003 108.993C171.401 108.72 170.75 108.583 170.051 108.583C169.371 108.583 168.721 108.72 168.099 108.993C167.497 109.246 166.963 109.596 166.497 110.045C166.05 110.493 165.691 111.019 165.419 111.622C165.166 112.226 165.04 112.869 165.04 113.551C165.04 114.252 165.166 114.915 165.419 115.538C165.691 116.142 166.05 116.668 166.497 117.116C166.963 117.564 167.497 117.915 168.099 118.168C168.721 118.441 169.371 118.577 170.051 118.577C170.75 118.577 171.401 118.441 172.003 118.168C172.605 117.915 173.129 117.564 173.576 117.116C174.023 116.668 174.372 116.142 174.625 115.538Z" fill="#707A87"/>
</g>
<defs>
<clipPath id="clip0_344_28649">
<rect width="112.713" height="44.3278" fill="white" transform="translate(106.287 74.787)"/>
</clipPath>
</defs>
</svg>
