<svg width="48" height="21" viewBox="0 0 48 21" fill="none" xmlns="http://www.w3.org/2000/svg">
<rect width="48" height="21" rx="4" fill="#EC2356"/>
<mask id="mask0_156_26666" style="mask-type:alpha" maskUnits="userSpaceOnUse" x="4" y="3" width="15" height="15">
<rect x="4" y="3" width="15" height="15" fill="#D9D9D9"/>
</mask>
<g mask="url(#mask0_156_26666)">
<path d="M11.5 12.375C11.1562 12.375 10.8621 12.2525 10.6175 12.0075C10.3725 11.7629 10.25 11.4688 10.25 11.125C10.25 10.7812 10.3725 10.4869 10.6175 10.2419C10.8621 9.99729 11.1562 9.875 11.5 9.875C11.8438 9.875 12.1381 9.99729 12.3831 10.2419C12.6277 10.4869 12.75 10.7812 12.75 11.125C12.75 11.4688 12.6277 11.7629 12.3831 12.0075C12.1381 12.2525 11.8438 12.375 11.5 12.375ZM8.53125 13.4219C8.29167 13.099 8.10167 12.7448 7.96125 12.3594C7.82042 11.974 7.75 11.5625 7.75 11.125C7.75 10.0833 8.11458 9.19792 8.84375 8.46875C9.57292 7.73958 10.4583 7.375 11.5 7.375C12.5417 7.375 13.4271 7.73958 14.1562 8.46875C14.8854 9.19792 15.25 10.0833 15.25 11.125C15.25 11.5625 15.1798 11.9792 15.0394 12.375C14.8985 12.7708 14.7083 13.125 14.4688 13.4375C14.3646 13.5729 14.2265 13.6406 14.0544 13.6406C13.8827 13.6406 13.7292 13.5729 13.5938 13.4375C13.4792 13.3229 13.4192 13.1823 13.4137 13.0156C13.4088 12.849 13.4583 12.6875 13.5625 12.5312C13.7083 12.3229 13.8177 12.1017 13.8906 11.8675C13.9635 11.6329 14 11.3854 14 11.125C14 10.4375 13.7552 9.84896 13.2656 9.35938C12.776 8.86979 12.1875 8.625 11.5 8.625C10.8125 8.625 10.224 8.86979 9.73438 9.35938C9.24479 9.84896 9 10.4375 9 11.125C9 11.3958 9.03917 11.6458 9.1175 11.875C9.19542 12.1042 9.30208 12.3229 9.4375 12.5312C9.54167 12.6875 9.58854 12.8517 9.57812 13.0238C9.56771 13.1954 9.50521 13.3385 9.39062 13.4531C9.26562 13.5781 9.11729 13.6379 8.94563 13.6325C8.77354 13.6275 8.63542 13.5573 8.53125 13.4219ZM6.76563 15.2031C6.29688 14.651 5.92708 14.0288 5.65625 13.3363C5.38542 12.6433 5.25 11.9062 5.25 11.125C5.25 10.2604 5.41417 9.44792 5.7425 8.6875C6.07042 7.92708 6.51563 7.26562 7.07813 6.70313C7.64062 6.14063 8.30208 5.69521 9.0625 5.36687C9.82292 5.03896 10.6354 4.875 11.5 4.875C12.3646 4.875 13.1771 5.03896 13.9375 5.36687C14.6979 5.69521 15.3594 6.14063 15.9219 6.70313C16.4844 7.26562 16.9296 7.92708 17.2575 8.6875C17.5858 9.44792 17.75 10.2604 17.75 11.125C17.75 11.9062 17.6146 12.6458 17.3438 13.3438C17.0729 14.0417 16.7031 14.6667 16.2344 15.2188C16.1198 15.3438 15.9792 15.4062 15.8125 15.4062C15.6458 15.4062 15.5 15.3438 15.375 15.2188C15.2604 15.1042 15.2006 14.9608 15.1956 14.7887C15.1902 14.6171 15.2448 14.4635 15.3594 14.3281C15.7135 13.8906 15.9923 13.401 16.1956 12.8594C16.3985 12.3177 16.5 11.7396 16.5 11.125C16.5 9.72917 16.0156 8.54687 15.0469 7.57812C14.0781 6.60937 12.8958 6.125 11.5 6.125C10.1042 6.125 8.92187 6.60937 7.95312 7.57812C6.98437 8.54687 6.5 9.72917 6.5 11.125C6.5 11.7396 6.60167 12.315 6.805 12.8513C7.00792 13.3879 7.29167 13.875 7.65625 14.3125C7.77083 14.4479 7.82562 14.6015 7.82062 14.7731C7.81521 14.9452 7.75 15.0937 7.625 15.2188C7.5 15.3438 7.35417 15.4035 7.1875 15.3981C7.02083 15.3931 6.88021 15.3281 6.76563 15.2031Z" fill="white"/>
</g>
<path d="M21.99 14.5H26.687V13.18H23.42V6.8H21.99V14.5ZM27.9734 6.8V14.5H29.4034V6.8H27.9734ZM36.9787 6.8H35.3947L33.6677 12.498L31.9407 6.8H30.3567L32.9417 14.5H34.3937L36.9787 6.8ZM37.8132 14.5H42.6862V13.18H39.2432V11.057H41.9162V9.737H39.2432V8.12H42.5762V6.8H37.8132V14.5Z" fill="white"/>
</svg>
